<?xml version="1.0" encoding="UTF-8"?>
<!-- Generator: visioncortex VTracer 0.6.12 -->
<svg version="1.1" xmlns="http://www.w3.org/2000/svg" width="1124" height="456">
<path d="M0 0 C2.64 0 5.28 0 8 0 C8.66 0.825 8.66 0.825 12 5 C12.45 11.561 12.45 11.561 11.738 13.839 C11.29 14.835 10.764 15.765 10.21 16.705 C9.021 18.772 8.457 20.805 7.938 23.125 C7.379 25.604 6.767 27.658 5.5 29.875 C4.633 31.827 4.229 33.924 3.785 36.008 C3.381 37.809 2.874 39.334 2 40.965 C0.693 43.442 0.282 45.999 -0.211 48.732 C-0.786 51.645 -0.786 51.645 -1.473 52.787 C-1.56 52.904 -1.56 52.904 -2 53.496 C-2.884 54.688 -3.247 55.705 -3.562 57.156 C-3.715 57.936 -3.861 58.718 -4 59.5 C-4.72 63.543 -4.72 63.543 -5.473 64.773 C-5.56 64.888 -5.56 64.888 -6 65.469 C-6.668 66.367 -7.009 67.031 -7.316 68.119 C-7.569 69.41 -7.794 70.701 -8 72 C-8.716 76.505 -8.716 76.505 -9.473 77.822 C-9.822 78.292 -10.174 78.76 -10.527 79.227 C-11.495 80.809 -11.679 82.697 -12 84.5 C-12.717 88.526 -12.717 88.526 -13.473 89.793 C-13.824 90.267 -14.176 90.74 -14.527 91.213 C-15.477 92.794 -15.677 94.644 -16 96.438 C-16.508 99.229 -17.187 101.482 -18.527 103.984 C-19.515 106.106 -19.798 108.444 -20.211 110.732 C-20.786 113.645 -20.786 113.645 -21.473 114.787 C-21.647 115.021 -21.821 115.255 -22 115.496 C-22.884 116.688 -23.247 117.705 -23.562 119.156 C-23.715 119.936 -23.861 120.718 -24 121.5 C-24.717 125.526 -24.717 125.526 -25.473 126.793 C-25.824 127.267 -26.176 127.74 -26.527 128.213 C-27.477 129.794 -27.677 131.644 -28 133.438 C-28.509 136.231 -29.184 138.509 -30.527 141.015 C-31.448 142.934 -31.785 145.015 -32.211 147.088 C-32.589 148.773 -32.963 150.07 -34 151.465 C-34.875 152.667 -35.245 153.702 -35.562 155.156 C-35.715 155.936 -35.861 156.718 -36 157.5 C-36.718 161.528 -36.718 161.528 -37.473 162.791 C-37.824 163.264 -38.176 163.736 -38.527 164.209 C-39.483 165.808 -39.677 167.687 -40 169.5 C-40.715 173.513 -40.715 173.513 -41.473 174.809 C-41.822 175.287 -42.174 175.765 -42.527 176.24 C-43.427 177.686 -43.665 179.349 -44 181 C-44.493 183.429 -45.04 185.213 -46.5 187.222 C-47.455 188.708 -47.911 190.388 -48.438 192.062 C-48.563 192.447 -48.689 192.832 -48.818 193.229 C-49.516 195.389 -50.166 197.559 -50.789 199.742 C-50.919 200.192 -51.048 200.642 -51.182 201.105 C-51.431 201.977 -51.674 202.85 -51.91 203.725 C-52.229 204.846 -52.55 205.925 -53 207 C-53.659 207.674 -54.325 208.342 -55 209 C-55.456 210.199 -55.688 211.432 -55.938 212.688 C-57.054 217.643 -58.755 222.184 -61.562 226.438 C-62.857 228.483 -63.38 230.33 -63.875 232.688 C-64.898 237.447 -67.131 241.475 -69.37 245.761 C-70.338 247.664 -71.207 249.607 -72.062 251.562 C-72.223 251.928 -72.383 252.294 -72.548 252.671 C-72.87 253.408 -73.191 254.145 -73.512 254.882 C-74.35 256.802 -75.208 258.713 -76.062 260.625 C-76.974 262.666 -77.884 264.706 -78.742 266.77 C-80.737 271.564 -83.048 276.18 -85.399 280.81 C-85.928 281.857 -86.449 282.907 -86.965 283.961 C-89.071 288.254 -91.301 292.476 -93.562 296.688 C-93.71 296.964 -93.858 297.24 -94.011 297.525 C-97.225 303.518 -100.748 309.268 -104.5 314.938 C-104.712 315.258 -104.923 315.578 -105.141 315.908 C-110.02 323.258 -115.439 330.157 -121 337 C-121.66 337 -122.32 337 -123 337 C-123.1 337.248 -123.2 337.496 -123.303 337.752 C-124.199 339.764 -125.14 341.284 -126.77 342.781 C-127.444 343.361 -128.126 343.934 -128.812 344.5 C-128.992 344.652 -128.992 344.652 -129.9 345.419 C-130.611 346.018 -131.325 346.613 -132.041 347.206 C-132.833 347.861 -133.614 348.526 -134.391 349.199 C-138.33 352.563 -142.826 355.476 -147.838 356.89 C-148.424 357.041 -149.013 357.184 -149.603 357.317 C-151.745 357.816 -151.745 357.816 -152.671 358.484 C-152.896 358.663 -153.12 358.842 -153.352 359.027 C-154.335 359.722 -155.021 360.004 -156.215 360.242 C-157.688 360.379 -159.147 360.438 -160.625 360.438 C-160.889 360.439 -161.153 360.44 -161.424 360.442 C-164.326 360.429 -166.909 360.189 -169.613 359.055 C-174.061 356.837 -177.841 353.819 -181 350 C-181.195 349.767 -181.389 349.534 -181.59 349.294 C-182.758 347.886 -183.891 346.456 -185 345 C-185 344.34 -185 343.68 -185 343 C-185.66 343 -186.32 343 -187 343 C-187.08 342.723 -187.161 342.447 -187.244 342.161 C-187.618 340.878 -187.997 339.595 -188.375 338.312 C-188.501 337.877 -188.628 337.442 -188.758 336.994 C-189.401 334.824 -190.091 332.778 -191.039 330.723 C-192.548 327.036 -192.659 323.057 -193 319.125 C-193.142 317.565 -193.289 316.005 -193.438 314.445 C-193.474 314.054 -193.51 313.663 -193.547 313.259 C-193.79 310.755 -194.095 308.275 -194.48 305.79 C-195.901 296.505 -196.312 287.405 -196.339 278.022 C-196.347 276.016 -196.368 274.011 -196.388 272.006 C-196.436 266.921 -196.469 261.835 -196.5 256.75 C-196.541 250.078 -196.588 243.406 -196.656 236.734 C-196.66 236.328 -196.664 235.923 -196.668 235.504 C-196.807 221.987 -197.455 208.585 -198.646 195.121 C-198.989 191.232 -199.254 187.343 -199.474 183.446 C-199.558 181.985 -199.649 180.525 -199.74 179.064 C-199.843 177.404 -199.942 175.744 -200.029 174.083 C-200.374 167.558 -201.023 161.841 -203.683 155.784 C-204.409 153.989 -204.652 152.091 -204.938 150.188 C-206.371 142.193 -209.082 134.421 -213.727 127.711 C-215.592 125.157 -217.471 122.917 -220 121 C-220.256 120.804 -220.511 120.608 -220.774 120.406 C-223.017 118.787 -225.306 117.653 -228 117 C-230.365 116.641 -232.737 116.584 -235.125 116.562 C-235.273 116.559 -235.273 116.559 -236.02 116.544 C-238.311 116.513 -240.643 116.489 -242.813 117.306 C-243.869 117.794 -244.887 118.335 -245.904 118.901 C-247.711 119.903 -249.296 120.404 -251.371 120.619 C-251.702 120.642 -252.034 120.664 -252.375 120.688 C-252.729 120.722 -253.084 120.756 -253.449 120.791 C-254.299 120.871 -255.148 120.941 -256 121 C-256.179 121.209 -256.357 121.419 -256.541 121.635 C-257.592 122.838 -258.564 123.802 -260.031 124.469 C-260.222 124.536 -260.222 124.536 -261.188 124.875 C-268.899 127.744 -274.896 133.26 -280.765 138.833 C-281.557 139.584 -282.354 140.327 -283.161 141.062 C-291.267 148.452 -297.734 157.339 -303.276 166.785 C-304.062 168.104 -304.883 169.395 -305.719 170.684 C-311.526 179.655 -311.526 179.655 -313.595 184.146 C-314.104 185.219 -314.641 186.277 -315.18 187.336 C-317.472 191.845 -319.705 196.352 -321.61 201.04 C-321.893 201.736 -322.178 202.43 -322.464 203.124 C-324.494 208.039 -326.416 212.953 -327.961 218.044 C-328.481 219.7 -328.985 221.073 -330.023 222.473 C-331.117 223.997 -331.433 225.493 -331.789 227.316 C-331.859 227.707 -331.928 228.098 -332 228.5 C-332.718 232.528 -332.718 232.528 -333.473 233.791 C-333.824 234.264 -334.176 234.736 -334.527 235.209 C-335.483 236.808 -335.677 238.687 -336 240.5 C-336.723 244.555 -336.723 244.555 -337.473 245.758 C-337.647 245.984 -337.821 246.209 -338 246.441 C-338.696 247.378 -339.015 248.055 -339.316 249.197 C-339.571 250.608 -339.795 252.019 -340 253.438 C-340.461 256.6 -340.982 259.19 -342.527 261.997 C-343.412 263.874 -343.664 265.904 -344 267.938 C-344.441 270.58 -344.945 273 -346 275.473 C-347.11 278.1 -347.575 280.691 -348 283.5 C-348.423 286.294 -348.876 288.863 -350 291.469 C-351.186 294.248 -351.598 297.033 -352 300 C-352.401 302.955 -352.801 305.721 -354.008 308.48 C-355.146 311.118 -355.456 313.653 -355.777 316.478 C-356.47 322.404 -357.933 326.787 -361 332 C-364.3 332 -367.6 332 -371 332 C-372.32 330.35 -373.64 328.7 -375 327 C-374.865 326.352 -374.729 325.703 -374.59 325.035 C-374.117 322.675 -373.709 320.308 -373.316 317.934 C-373.129 316.815 -372.941 315.697 -372.753 314.579 C-372.626 313.817 -372.501 313.054 -372.378 312.29 C-371.19 304.948 -371.19 304.948 -369.453 301.965 C-368.457 299.843 -368.308 297.37 -368 295.062 C-367.533 291.582 -366.878 288.531 -365.473 285.28 C-364.512 282.679 -364.26 279.891 -363.896 277.154 C-363.488 274.167 -362.959 271.698 -361.473 269.03 C-360.332 266.544 -360.177 263.663 -359.789 260.979 C-359.215 257.379 -359.215 257.379 -358.527 256.166 C-358.178 255.704 -357.826 255.244 -357.473 254.785 C-356.448 253.083 -356.31 250.996 -356 249.062 C-355.517 246.08 -354.918 243.657 -353.473 240.998 C-352.474 238.89 -352.2 236.548 -351.789 234.268 C-351.214 231.355 -351.214 231.355 -350.527 230.213 C-350.44 230.096 -350.44 230.096 -350 229.504 C-349.116 228.312 -348.753 227.295 -348.438 225.844 C-348.285 225.064 -348.139 224.282 -348 223.5 C-347.288 219.503 -347.288 219.503 -346.527 218.174 C-346.18 217.689 -345.829 217.207 -345.473 216.729 C-344.634 215.436 -344.35 213.986 -344 212.5 C-343.468 210.245 -342.808 208.62 -341.459 206.733 C-340.714 205.544 -340.487 204.294 -340.188 202.938 C-339.108 198.763 -337.167 195.103 -335.184 191.296 C-334.145 189.295 -333.139 187.279 -332.141 185.258 C-328.911 178.729 -325.643 172.226 -322.188 165.812 C-322.047 165.55 -321.906 165.288 -321.761 165.018 C-320.855 163.337 -319.936 161.664 -319 160 C-318.774 159.598 -318.548 159.196 -318.315 158.781 C-316.089 154.948 -313.495 151.384 -310.875 147.812 C-310.633 147.483 -310.391 147.153 -310.142 146.813 C-306.098 141.316 -301.869 136.111 -297.14 131.191 C-296.347 130.366 -295.563 129.532 -294.786 128.691 C-289.916 123.432 -285.462 119.15 -278.91 116.035 C-277.149 115.176 -276.04 114.085 -274.717 112.662 C-273.973 111.975 -273.416 111.666 -272.465 111.34 C-271.958 111.196 -271.449 111.062 -270.938 110.938 C-269.915 110.677 -268.996 110.374 -268 110 C-267.34 109.34 -266.68 108.68 -266 108 C-264.845 107.835 -264.845 107.835 -259 107 C-259 106.34 -259 105.68 -259 105 C-257.408 104.092 -256.017 103.779 -254.207 103.535 C-253.657 103.458 -253.107 103.38 -252.557 103.302 C-252.415 103.283 -252.415 103.283 -251.693 103.184 C-243.858 102.105 -243.858 102.105 -240.188 100.875 C-236.831 99.805 -233.529 99.503 -230.016 99.834 C-227.562 100.234 -225.311 101.242 -223.031 102.199 C-219.81 103.53 -216.392 104.241 -213 105 C-213 105.66 -213 106.32 -213 107 C-212.697 107.086 -212.394 107.173 -212.082 107.262 C-209.923 107.986 -208.231 108.704 -206.555 110.246 C-205.324 111.456 -204.152 112.715 -203 114 C-203 114.66 -203 115.32 -203 116 C-202.01 116.33 -201.02 116.66 -200 117 C-199.67 118.32 -199.34 119.64 -199 121 C-198.34 121 -197.68 121 -197 121 C-195.117 125.153 -193.512 129.323 -192.128 133.668 C-191.474 135.69 -190.752 137.601 -189.824 139.511 C-187.98 143.333 -187.319 147.221 -186.734 151.386 C-186.38 153.874 -185.95 156.254 -185.272 158.676 C-183.789 164.038 -183.416 169.444 -183.052 174.97 C-182.952 176.463 -182.842 177.955 -182.734 179.447 C-182.634 180.836 -182.538 182.226 -182.446 183.615 C-182.212 187.155 -181.945 190.689 -181.638 194.224 C-180.41 208.413 -179.818 222.534 -179.727 236.777 C-179.721 237.602 -179.715 238.427 -179.709 239.252 C-179.66 246.42 -179.627 253.587 -179.62 260.755 C-179.586 294.998 -179.586 294.998 -177.395 311.224 C-177.277 312.103 -177.164 312.983 -177.051 313.863 C-176.227 320.2 -174.82 326.111 -172.565 332.097 C-172.463 332.373 -172.362 332.648 -172.257 332.932 C-171.285 335.528 -170.307 337.889 -168.351 339.92 C-166.98 341.191 -165.639 341.971 -164 343 C-161.36 343 -158.72 343 -156 343 C-155.443 342.546 -154.886 342.092 -154.312 341.625 C-152.821 340.41 -151.438 339.764 -149.629 339.094 C-146.958 338.059 -144.859 336.65 -142.625 334.875 C-142.243 334.576 -141.861 334.277 -141.467 333.969 C-137.47 330.771 -134.197 326.988 -131 323 C-130.34 323 -129.68 323 -129 323 C-128.968 322.836 -128.968 322.836 -128.809 322.004 C-127.73 317.813 -125.599 315.007 -122.889 311.679 C-120.452 308.667 -118.308 305.532 -116.25 302.25 C-116.108 302.024 -115.965 301.797 -115.819 301.564 C-114.868 300.05 -113.932 298.526 -113 297 C-112.757 296.606 -112.515 296.212 -112.265 295.807 C-110.111 292.273 -108.137 288.649 -106.188 285 C-106.014 284.677 -105.841 284.353 -105.663 284.02 C-102.908 278.866 -100.352 273.647 -97.991 268.301 C-96.917 265.883 -95.796 263.578 -94.398 261.328 C-93.131 259.28 -92.373 257.472 -91.74 255.152 C-91.329 253.757 -90.834 252.695 -89.988 251.504 C-89 250.094 -88.603 248.733 -88.25 247.062 C-87.362 243.44 -85.709 240.286 -84 237 C-82.191 233.515 -80.546 230.211 -79.615 226.373 C-78.63 222.316 -76.814 218.518 -74.873 214.835 C-72.721 210.737 -71.392 206.403 -70 202 C-69.485 200.373 -68.963 198.749 -68.438 197.125 C-68.323 196.756 -68.208 196.387 -68.09 196.007 C-67.446 194.018 -66.695 192.469 -65.484 190.773 C-64.55 189.281 -64.087 187.608 -63.562 185.938 C-63.437 185.552 -63.311 185.166 -63.182 184.769 C-62.489 182.62 -61.838 180.462 -61.211 178.293 C-61.081 177.848 -60.952 177.402 -60.818 176.944 C-60.57 176.085 -60.327 175.225 -60.09 174.363 C-59.572 172.556 -59.099 171.012 -57.973 169.492 C-57.107 168.307 -56.752 167.278 -56.438 165.844 C-56.285 165.064 -56.139 164.282 -56 163.5 C-55.289 159.511 -55.289 159.511 -54.543 158.191 C-54.199 157.71 -53.852 157.231 -53.5 156.756 C-52.54 155.304 -52.086 153.648 -51.562 152 C-51.5 151.808 -51.5 151.808 -51.182 150.839 C-50.462 148.599 -49.811 146.345 -49.211 144.07 C-49.146 143.825 -49.081 143.579 -49.014 143.327 C-48.697 142.126 -48.388 140.924 -48.09 139.719 C-47.494 137.404 -46.881 135.68 -45.457 133.769 C-44.512 132.179 -44.321 130.299 -44 128.5 C-43.28 124.457 -43.28 124.457 -42.527 123.227 C-42.44 123.112 -42.44 123.112 -42 122.531 C-41.332 121.633 -40.991 120.969 -40.684 119.881 C-40.431 118.59 -40.206 117.299 -40 116 C-39.284 111.495 -39.284 111.495 -38.527 110.178 C-38.178 109.708 -37.826 109.24 -37.473 108.773 C-36.505 107.191 -36.321 105.303 -36 103.5 C-35.28 99.457 -35.28 99.457 -34.527 98.227 C-34.44 98.112 -34.44 98.112 -34 97.531 C-33.332 96.633 -32.991 95.969 -32.684 94.881 C-32.431 93.59 -32.206 92.299 -32 91 C-31.284 86.495 -31.284 86.495 -30.527 85.178 C-30.178 84.708 -29.826 84.24 -29.473 83.773 C-28.505 82.191 -28.321 80.303 -28 78.5 C-27.283 74.474 -27.283 74.474 -26.527 73.207 C-26.176 72.733 -25.824 72.26 -25.473 71.787 C-24.523 70.206 -24.323 68.356 -24 66.562 C-23.492 63.771 -22.813 61.514 -21.473 59.011 C-20.651 57.254 -20.35 55.398 -20 53.5 C-19.488 50.724 -18.799 48.454 -17.468 45.96 C-16.739 44.465 -16.409 42.931 -16.062 41.312 C-14.636 35.209 -12.665 29.351 -10.051 23.657 C-9.054 21.379 -8.577 19.125 -8.125 16.688 C-7.428 13.039 -6.167 9.856 -4.5 6.562 C-4.286 6.137 -4.072 5.712 -3.852 5.274 C-2.708 3.091 -1.801 1.801 0 0 Z " fill="#8b0000" transform="translate(408,32)"/>
<path d="M0 0 C3.63 0 7.26 0 11 0 C14.757 3.514 14.757 3.514 15.345 4.69 C16.343 7.405 16.274 10.243 16.093 13.095 C15.841 15.547 15.221 17.851 14 20 C12.68 21.32 11.36 22.64 10 24 C6.04 24 2.08 24 -2 24 C-2.99 22.68 -3.98 21.36 -5 20 C-5 15.71 -5 11.42 -5 7 C-3.35 4.69 -1.7 2.38 0 0 Z " fill="#8b0000" transform="translate(377,244)"/>
<path d="M0 0 C2.5 0.938 2.5 0.938 7.5 5.938 C7.5 11.548 7.5 17.158 7.5 22.938 C5.85 24.587 4.2 26.238 2.5 27.938 C-0.8 27.938 -4.1 27.938 -7.5 27.938 C-7.83 27.442 -7.83 27.442 -9.5 24.938 C-11.234 25.026 -12.889 25.279 -14.5 25.938 C-16.425 27.099 -18.081 28.647 -19.748 30.144 C-20.578 30.889 -21.417 31.621 -22.26 32.351 C-23.428 33.365 -24.593 34.383 -25.754 35.405 C-28.246 37.595 -30.757 39.762 -33.29 41.905 C-34.046 42.548 -34.794 43.199 -35.541 43.851 C-38.833 46.67 -38.833 46.67 -40.726 47.429 C-41.658 47.665 -42.544 47.847 -43.5 47.938 C-42.989 49.7 -42.382 51.325 -41.5 52.938 C-40.201 54.211 -38.755 55.088 -37.188 56 C-36.371 56.506 -35.556 57.014 -34.742 57.523 C-34.353 57.764 -33.963 58.005 -33.562 58.253 C-32.221 59.117 -31.017 60.083 -29.812 61.125 C-27.48 63.058 -25.009 64.31 -22.279 65.574 C-20.947 66.195 -19.63 66.847 -18.312 67.5 C-18.075 67.615 -17.837 67.73 -17.592 67.848 C-16.333 68.468 -15.212 69.136 -14.078 69.965 C-12.038 71.358 -9.758 71.676 -7.373 72.148 C-7.032 72.223 -6.691 72.298 -6.34 72.375 C-6.034 72.436 -5.729 72.496 -5.414 72.559 C-4.121 73.094 -3.443 73.91 -2.5 74.938 C-2.21 74.948 -1.921 74.958 -1.623 74.969 C1.128 75.067 3.878 75.17 6.629 75.277 C8.042 75.332 9.455 75.385 10.869 75.435 C12.237 75.483 13.605 75.535 14.973 75.59 C15.491 75.611 16.009 75.629 16.527 75.647 C19.13 75.734 21.571 75.916 24.109 76.52 C25.326 76.787 26.26 76.974 27.494 76.787 C28.139 76.602 28.782 76.408 29.423 76.209 C31.428 75.704 33.497 75.765 35.555 75.738 C36.389 75.726 37.222 75.707 38.056 75.685 C40.423 75.624 42.791 75.57 45.159 75.536 C55.765 75.377 55.765 75.377 58.462 74.247 C59.437 73.756 60.353 73.195 61.277 72.615 C62.679 71.839 63.726 71.661 65.316 71.531 C66.231 71.491 67.147 71.46 68.062 71.438 C72.848 71.175 72.848 71.175 74.356 70.625 C75.39 70.057 76.304 69.349 77.242 68.637 C79.817 67.205 82.949 67.199 85.845 66.982 C86.061 66.967 86.277 66.953 86.5 66.938 C86.658 66.728 86.815 66.519 86.978 66.303 C87.741 65.336 88.495 64.657 89.5 63.938 C90.487 63.617 91.43 63.356 92.438 63.125 C96.074 62.261 99.255 60.691 102.562 59 C102.687 58.936 102.687 58.936 103.318 58.614 C104.304 58.108 105.288 57.601 106.271 57.09 C107.786 56.301 109.311 55.535 110.844 54.782 C113.514 53.469 116.062 52.055 118.562 50.438 C119.252 49.998 119.942 49.56 120.633 49.121 C120.957 48.915 121.281 48.708 121.614 48.496 C122.709 47.806 123.82 47.151 124.938 46.5 C128.137 44.598 131.207 42.493 134.293 40.414 C135.597 39.536 136.907 38.672 138.238 37.836 C141.563 35.734 144.275 33.376 146.964 30.506 C147.729 29.695 148.52 28.91 149.312 28.125 C149.546 27.892 149.779 27.658 150.02 27.418 C150.178 27.259 150.337 27.101 150.5 26.938 C151.16 26.938 151.82 26.938 152.5 26.938 C152.5 26.277 152.5 25.618 152.5 24.938 C152.699 24.883 152.699 24.883 153.707 24.605 C154.242 24.446 154.777 24.286 155.312 24.125 C155.443 24.09 155.443 24.09 156.104 23.912 C156.895 23.668 156.895 23.668 158.5 22.938 C159.49 21.947 160.48 20.957 161.5 19.938 C168.43 19.938 175.36 19.938 182.5 19.938 C183.634 21.216 184.769 22.495 185.938 23.812 C186.294 24.212 186.65 24.611 187.017 25.023 C187.158 25.183 187.158 25.183 187.871 25.992 C188.159 26.317 188.447 26.642 188.744 26.976 C189.513 27.954 190.046 28.779 190.5 29.938 C190.694 31.602 190.686 33.266 190.685 34.941 C190.687 35.738 190.706 36.533 190.725 37.33 C190.753 39.997 190.568 42.085 189.488 44.574 C189.304 44.936 189.12 45.298 188.931 45.671 C188.331 47.435 188.419 49.091 188.5 50.938 C191.395 51.008 194.29 51.061 197.186 51.093 C198.531 51.108 199.876 51.129 201.221 51.164 C210.723 51.401 210.723 51.401 213.366 50.274 C214.114 49.892 214.826 49.478 215.541 49.036 C216.695 48.323 217.673 47.836 219.009 47.645 C220.803 47.482 222.601 47.452 224.401 47.426 C226.13 47.39 227.803 47.306 229.5 46.938 C230.6 46.246 231.525 45.466 232.508 44.619 C233.5 43.938 233.5 43.938 234.664 43.646 C235.925 43.529 237.172 43.47 238.438 43.438 C242.896 43.173 242.896 43.173 244.302 42.625 C245.31 42.038 246.22 41.32 247.156 40.625 C247.963 40.125 248.569 39.925 249.512 39.75 C251.076 39.579 252.631 39.45 254.203 39.404 C255.36 39.341 256.38 39.239 257.5 38.938 C258.543 38.238 259.477 37.456 260.444 36.655 C261.987 35.607 263.491 35.364 265.309 35.061 C265.743 34.999 266.177 34.938 266.625 34.875 C269.993 34.379 269.993 34.379 271.5 33.938 C272.398 33.334 272.85 32.818 273.5 31.938 C273.959 31.9 274.418 31.863 274.891 31.824 C278.688 31.443 278.688 31.443 280.5 30.938 C281.609 30.238 281.609 30.238 282.5 29.438 C283.406 28.625 283.406 28.625 284.5 27.938 C285.657 27.66 286.817 27.547 288 27.438 C291.151 27.139 291.151 27.139 292.629 26.285 C293.228 25.782 293.817 25.267 294.395 24.738 C295.745 23.76 297.04 23.322 298.621 22.84 C298.899 22.752 299.176 22.663 299.462 22.572 C300.14 22.357 300.82 22.147 301.5 21.938 C301.67 21.595 301.84 21.252 302.016 20.899 C306.807 11.391 306.807 11.391 309.601 8.993 C311.535 7.76 313.569 6.889 315.763 6.228 C316.5 5.938 316.5 5.938 317.5 4.938 C319.857 4.606 322.158 4.417 324.5 4.938 C327.386 6.206 329.97 8.075 332.5 9.938 C332.5 10.598 332.5 11.257 332.5 11.938 C333.49 12.267 334.48 12.598 335.5 12.938 C337.233 18.617 338.21 23.996 337.5 29.938 C337.153 32.207 336.684 34.447 336.188 36.688 C336.158 36.825 336.158 36.825 336.009 37.519 C335.147 41.457 333.876 44.649 331.5 47.938 C330.723 48.887 329.904 49.734 329 50.562 C328.565 50.976 328.13 51.39 327.695 51.805 C327.489 51.998 327.283 52.191 327.071 52.39 C326.089 53.332 325.181 54.346 324.273 55.359 C323.113 56.227 321.885 56.524 320.5 56.938 C320.051 62.714 320.051 62.714 320.778 64.695 C321.352 65.794 322.054 66.791 322.766 67.805 C323.822 69.434 324.16 71.054 324.5 72.938 C327.784 72.378 330.518 71.012 333.392 69.408 C334.128 68.999 334.868 68.598 335.609 68.197 C336.086 67.935 336.563 67.673 337.039 67.41 C337.464 67.176 337.889 66.941 338.327 66.699 C339.234 66.11 339.848 65.635 340.584 64.878 C341.5 63.938 341.5 63.938 342.613 63.41 C343.009 63.275 343.405 63.139 343.812 63 C347.344 61.671 350.45 59.815 353.375 57.438 C355.84 55.542 358.629 54.52 361.486 53.36 C363.322 52.595 365.126 51.759 366.938 50.938 C370.218 49.455 373.524 48.123 376.937 46.977 C377.82 46.666 378.663 46.358 379.5 45.938 C379.655 45.769 379.655 45.769 380.441 44.914 C381.5 43.938 381.5 43.938 382.463 43.623 C384.042 43.277 385.63 43.001 387.223 42.727 C388.343 42.512 389.417 42.296 390.5 41.938 C390.821 41.608 391.142 41.278 391.473 40.938 C391.812 40.608 392.151 40.278 392.5 39.938 C394.117 39.444 395.769 39.198 397.438 38.938 C402.033 38.215 402.033 38.215 403.329 37.445 C403.563 37.266 403.798 37.087 404.039 36.902 C404.733 36.375 404.733 36.375 405.5 35.938 C407.344 35.559 409.219 35.525 411.096 35.459 C412.288 35.376 413.347 35.258 414.5 34.938 C415.487 34.251 415.487 34.251 416.449 33.434 C417.435 32.617 417.435 32.617 418.5 31.938 C420.287 31.521 422.045 31.473 423.875 31.438 C428.557 31.345 428.557 31.345 430.213 30.63 C430.948 30.246 431.67 29.847 432.391 29.438 C434.313 28.363 435.953 27.749 438.16 27.575 C439.732 27.501 441.301 27.456 442.875 27.438 C447.033 27.388 450.42 27.1 454.258 25.418 C459.36 23.243 464.55 23.609 470 23.75 C471.023 23.767 472.047 23.779 473.07 23.791 C475.547 23.824 478.023 23.875 480.5 23.938 C481.49 24.928 482.48 25.918 483.5 26.938 C483.5 29.577 483.5 32.217 483.5 34.938 C482.51 35.762 482.51 35.762 477.5 39.938 C476.961 39.952 476.422 39.967 475.867 39.982 C473.833 40.04 471.8 40.118 469.767 40.2 C468.893 40.233 468.02 40.261 467.146 40.284 C462.335 40.414 458.322 40.717 453.975 42.865 C451.146 44.223 448.49 44.365 445.389 44.42 C437.647 44.575 437.647 44.575 434.535 46.023 C434.017 46.297 433.5 46.573 432.985 46.852 C430.515 48.123 428.121 48.261 425.375 48.438 C421.054 48.725 421.054 48.725 419.728 49.234 C418.731 49.8 417.834 50.498 416.914 51.18 C414.639 52.614 411.672 52.799 409.064 53.203 C405.859 53.73 405.859 53.73 404.689 54.406 C404.218 54.756 403.75 55.108 403.282 55.463 C401.366 56.626 398.906 56.769 396.729 57.148 C396.342 57.223 395.956 57.298 395.559 57.375 C395.385 57.405 395.385 57.405 394.506 57.559 C393.5 57.937 393.5 57.937 391.5 59.938 C389.19 60.267 386.88 60.597 384.5 60.938 C384.149 61.391 383.799 61.845 383.438 62.312 C382.594 63.177 381.838 63.808 380.703 64.244 C379.482 64.611 378.259 64.93 377.013 65.203 C376.145 65.404 375.329 65.61 374.5 65.938 C373.818 66.589 373.15 67.255 372.5 67.938 C371.273 68.43 371.273 68.43 369.875 68.812 C363.915 70.62 358.567 73.8 353.36 77.154 C351.453 78.374 349.558 79.437 347.5 80.375 C344.46 81.772 341.907 83.789 339.303 85.869 C337.406 87.361 335.848 88.342 333.5 88.938 C333.3 89.517 333.116 90.101 332.938 90.688 C332.833 91.012 332.729 91.337 332.621 91.672 C332.501 92.926 332.628 93.592 332.957 94.785 C334.125 99.053 333.991 103.783 333.314 108.132 C332.433 112.325 330.703 115.92 328.242 119.413 C324.602 124.239 320.368 127.713 315.481 131.21 C314.621 131.848 313.821 132.506 313.027 133.223 C310.313 135.672 310.313 135.672 308.714 136.194 C306.988 136.61 305.268 136.816 303.5 136.938 C303.5 137.597 303.5 138.257 303.5 138.938 C303.238 139.018 302.976 139.098 302.706 139.181 C301.51 139.552 300.318 139.932 299.125 140.312 C298.712 140.439 298.3 140.565 297.875 140.695 C296.722 141.067 295.606 141.443 294.5 141.938 C294.176 142.28 293.853 142.623 293.52 142.977 C293.351 143.135 293.351 143.135 292.5 143.938 C290.882 144.428 289.231 144.677 287.562 144.938 C282.922 145.667 282.922 145.667 281.715 146.441 C281.604 146.532 281.604 146.532 281.039 146.992 C280.347 147.519 280.347 147.519 279.5 147.938 C277.601 148.181 275.721 148.127 273.812 148.062 C273.296 148.052 272.78 148.043 272.264 148.035 C271.009 148.012 269.754 147.976 268.5 147.938 C267.675 147.113 267.675 147.113 263.5 142.938 C263.5 139.967 263.5 136.998 263.5 133.938 C263.985 133.332 264.469 132.726 264.969 132.102 C265.053 131.996 265.053 131.996 265.479 131.464 C266.349 130.375 267.221 129.287 268.094 128.2 C269.922 125.921 271.74 123.636 273.531 121.328 C277.031 116.837 280.614 112.662 284.711 108.697 C286.619 106.846 288.36 104.966 290 102.875 C292.715 99.465 296.014 96.769 299.322 93.954 C301.586 92.012 303.787 89.999 306 88 C306.45 87.594 306.9 87.188 307.35 86.782 C308.401 85.834 309.451 84.886 310.5 83.938 C310.248 82.573 309.956 81.25 309.5 79.938 C308.496 78.848 308.496 78.848 307.5 77.938 C306.973 76.746 306.973 76.746 306.562 75.375 C306.396 74.84 306.229 74.305 306.062 73.77 C305.974 73.478 305.885 73.186 305.793 72.885 C305.242 71.103 304.65 69.333 304.062 67.562 C303.936 67.175 303.81 66.787 303.68 66.387 C303.081 64.568 302.458 62.789 301.676 61.039 C298.971 54.87 298.775 48.585 298.5 41.938 C297.853 42.079 297.208 42.226 296.562 42.375 C296.383 42.416 296.383 42.416 295.473 42.621 C295.152 42.726 294.831 42.83 294.5 42.938 C294.17 43.267 293.84 43.597 293.5 43.938 C293.041 43.975 292.582 44.012 292.109 44.051 C288.312 44.432 288.312 44.432 286.5 44.938 C285.391 45.637 285.391 45.637 284.5 46.438 C283.594 47.25 283.594 47.25 282.5 47.938 C281.042 48.287 279.555 48.387 278.064 48.523 C277.191 48.621 276.354 48.731 275.5 48.938 C274.441 49.625 274.441 49.625 273.562 50.438 C272.66 51.25 272.66 51.25 271.5 51.938 C269.826 52.294 268.123 52.388 266.42 52.523 C265.429 52.619 264.473 52.728 263.5 52.938 C262.41 53.625 262.41 53.625 261.562 54.438 C260.688 55.25 260.688 55.25 259.5 55.938 C257.634 56.303 255.739 56.39 253.846 56.523 C250.88 56.777 250.88 56.777 249.762 57.25 C249.174 57.614 248.617 58.025 248.062 58.438 C247.166 59.087 246.511 59.541 245.5 59.938 C243.43 60.291 241.338 60.415 239.24 60.471 C237.943 60.534 236.767 60.641 235.5 60.938 C234.301 61.619 234.301 61.619 233.09 62.438 C230.975 63.822 230.975 63.822 229.759 64.118 C227.872 64.387 225.966 64.412 224.062 64.438 C223.51 64.445 222.957 64.454 222.404 64.465 C222.285 64.466 222.285 64.466 221.679 64.474 C221.526 64.484 221.526 64.484 220.754 64.531 C220.633 64.538 220.633 64.538 220.023 64.574 C218.575 64.699 217.406 64.902 216.129 65.615 C215.671 65.887 215.214 66.159 214.757 66.431 C212.818 67.482 211.088 68.126 208.883 68.322 C207.299 68.406 205.718 68.434 204.133 68.449 C203.446 68.466 202.76 68.484 202.073 68.504 C200.288 68.551 198.503 68.581 196.718 68.607 C194.887 68.637 193.057 68.684 191.227 68.729 C187.651 68.814 184.076 68.882 180.5 68.938 C179.395 70.162 178.292 71.389 177.192 72.618 C176.818 73.035 176.444 73.451 176.069 73.866 C174.035 76.12 172.096 78.341 170.5 80.938 C169.84 80.938 169.18 80.938 168.5 80.938 C168.17 81.928 167.84 82.918 167.5 83.938 C167.304 84.073 167.107 84.209 166.905 84.349 C165.997 84.979 165.092 85.615 164.188 86.25 C164.033 86.357 164.033 86.357 163.252 86.896 C161.671 88.012 160.261 89.135 158.926 90.539 C158.01 91.488 157.416 91.981 156.219 92.598 C155.817 92.73 155.414 92.863 155 93 C153.471 93.538 152.338 93.992 151.125 95.062 C150.449 95.559 150.449 95.559 149.5 95.938 C148.311 96.094 147.135 96.122 145.938 96.125 C145.632 96.126 145.327 96.127 145.012 96.127 C143.594 96.092 142.608 95.983 141.285 95.426 C141.026 95.265 140.767 95.104 140.5 94.938 C140.5 94.278 140.5 93.618 140.5 92.938 C138.85 92.278 137.2 91.618 135.5 90.938 C135.17 89.618 134.84 88.298 134.5 86.938 C133.84 86.938 133.18 86.938 132.5 86.938 C131.475 84.402 131.367 82.206 131.402 79.488 C131.403 79.28 131.403 79.28 131.407 78.223 C131.412 76.899 131.425 75.574 131.438 74.25 C131.443 73.348 131.447 72.447 131.451 71.545 C131.462 69.342 131.479 67.14 131.5 64.938 C129.85 64.938 128.2 64.938 126.5 64.938 C126.108 65.391 125.716 65.845 125.312 66.312 C123.698 67.919 122.145 68.574 120.027 69.34 C118.079 70.069 116.234 71.008 114.375 71.938 C114.038 72.104 113.702 72.27 113.355 72.441 C111.82 73.213 110.375 74 108.977 75 C107.164 76.249 105.221 76.65 103.105 77.148 C101.54 77.548 100.346 77.979 99.035 78.938 C97.024 80.379 94.758 80.676 92.373 81.148 C89.808 81.711 89.808 81.711 88.809 82.445 C88.254 83 88.254 83 87.5 83.938 C87.254 83.952 87.007 83.967 86.753 83.982 C79.389 84.468 79.389 84.468 77.176 85.637 C76.829 85.901 76.482 86.165 76.125 86.438 C75.203 87.101 74.544 87.545 73.5 87.938 C71.303 88.296 69.084 88.415 66.86 88.471 C64.275 88.587 62.383 88.934 60.056 90.02 C54.359 92.583 48.487 92.38 42.376 92.34 C40.819 92.333 39.262 92.34 37.704 92.345 C35.094 92.35 32.484 92.343 29.873 92.329 C26.871 92.312 23.87 92.318 20.868 92.334 C18.27 92.348 15.672 92.35 13.074 92.342 C11.531 92.337 9.989 92.336 8.446 92.346 C-1.604 92.403 -1.604 92.403 -4.536 91.266 C-5.561 90.788 -6.438 90.263 -7.394 89.644 C-9.2 88.49 -11.164 88.22 -13.25 87.875 C-16.166 87.382 -16.166 87.382 -17.5 86.938 C-18.598 85.934 -18.598 85.934 -19.5 84.938 C-20.762 84.445 -20.762 84.445 -22.188 84.062 C-24.734 83.304 -27 82.243 -29.312 80.938 C-29.614 80.771 -29.916 80.605 -30.227 80.434 C-31.027 79.97 -31.775 79.511 -32.5 78.938 C-33.199 77.812 -33.199 77.812 -33.5 76.938 C-33.875 76.756 -34.25 76.574 -34.637 76.387 C-37.232 75.118 -39.81 73.821 -42.312 72.375 C-42.711 72.147 -43.109 71.919 -43.52 71.684 C-43.843 71.437 -44.167 71.191 -44.5 70.938 C-44.833 70.271 -45.167 69.604 -45.5 68.938 C-47.443 67.376 -49.55 66.21 -51.941 65.523 C-53.126 65.287 -54.301 65.085 -55.5 64.938 C-55.794 65.937 -56.085 66.937 -56.375 67.938 C-56.454 68.204 -56.532 68.471 -56.613 68.746 C-56.797 69.382 -56.975 70.02 -57.15 70.658 C-57.341 71.355 -57.533 72.052 -57.736 72.746 C-59.351 78.314 -59.9 83.659 -60.125 89.438 C-60.163 90.268 -60.202 91.099 -60.242 91.93 C-60.338 93.932 -60.419 95.934 -60.5 97.938 C-61.325 98.928 -61.325 98.928 -65.5 103.938 C-67.81 103.938 -70.12 103.938 -72.5 103.938 C-73.82 102.618 -75.14 101.298 -76.5 99.938 C-76.852 90.947 -76.507 82.566 -74.64 73.752 C-73.625 68.924 -73.061 64.203 -72.879 59.273 C-72.736 56.289 -72.255 53.757 -71.2 50.98 C-70.629 49.465 -70.365 48.182 -70.375 46.562 C-70.416 46.026 -70.457 45.49 -70.5 44.938 C-71.655 45.103 -71.655 45.103 -77.5 45.938 C-77.83 46.267 -77.83 46.267 -79.5 47.938 C-79.721 47.952 -79.943 47.967 -80.171 47.982 C-85.154 48.349 -85.154 48.349 -87.5 48.938 C-88.641 49.637 -88.641 49.637 -89.5 50.438 C-90.359 51.238 -90.359 51.238 -91.5 51.938 C-94.106 52.592 -96.825 52.761 -99.5 52.938 C-99.648 53.147 -99.797 53.357 -99.949 53.573 C-100.718 54.605 -101.419 55.218 -102.5 55.938 C-104.174 56.51 -105.895 56.873 -107.631 57.203 C-107.801 57.237 -107.801 57.237 -108.66 57.41 C-108.966 57.464 -109.271 57.519 -109.586 57.574 C-110.5 57.938 -110.5 57.938 -112.5 59.938 C-113.655 60.103 -113.655 60.103 -119.5 60.938 C-120.49 61.928 -121.48 62.918 -122.5 63.938 C-123.655 64.102 -123.655 64.102 -129.5 64.938 C-129.5 65.597 -129.5 66.257 -129.5 66.938 C-129.762 67.018 -130.024 67.098 -130.294 67.181 C-131.49 67.552 -132.682 67.932 -133.875 68.312 C-134.288 68.439 -134.7 68.565 -135.125 68.695 C-138.245 69.702 -138.245 69.702 -139.594 70.949 C-139.743 71.112 -139.743 71.112 -140.5 71.938 C-141.501 72.519 -142.552 72.945 -143.625 73.375 C-143.926 73.501 -144.226 73.626 -144.536 73.756 C-146.232 74.455 -147.942 75.105 -149.668 75.727 C-150.026 75.856 -150.383 75.986 -150.751 76.119 C-151.444 76.368 -152.138 76.611 -152.834 76.847 C-153.751 77.174 -154.629 77.502 -155.5 77.938 C-155.834 78.277 -156.168 78.616 -156.512 78.965 C-157.5 79.938 -157.5 79.938 -158.275 80.252 C-159.486 80.593 -160.707 80.871 -161.934 81.148 C-162.819 81.369 -163.655 81.591 -164.5 81.938 C-164.655 82.102 -164.655 82.102 -165.438 82.938 C-165.788 83.267 -166.139 83.597 -166.5 83.938 C-168.359 84.548 -170.298 84.816 -172.223 85.148 C-175.181 85.715 -175.181 85.715 -176.227 86.445 C-176.781 87 -176.781 87 -177.5 87.938 C-177.746 87.952 -177.993 87.967 -178.247 87.982 C-179.395 88.058 -180.541 88.154 -181.688 88.25 C-182.075 88.273 -182.462 88.295 -182.861 88.318 C-184.128 88.434 -185.269 88.61 -186.5 88.938 C-187.226 89.417 -187.938 89.919 -188.637 90.438 C-189.832 91.221 -190.972 91.824 -192.376 92.126 C-194.829 92.438 -197.297 92.434 -199.766 92.441 C-200.566 92.451 -201.367 92.461 -202.168 92.472 C-203.843 92.49 -205.516 92.495 -207.191 92.493 C-208.891 92.493 -210.588 92.514 -212.288 92.555 C-226.279 92.888 -226.279 92.888 -230.15 91.358 C-232.975 90.049 -235.303 88.123 -237.5 85.938 C-237.98 85.495 -238.461 85.055 -238.944 84.615 C-239.858 83.771 -240.698 82.891 -241.5 81.938 C-241.5 81.278 -241.5 80.618 -241.5 79.938 C-242.16 79.938 -242.82 79.938 -243.5 79.938 C-243.616 79.675 -243.732 79.413 -243.851 79.143 C-244.38 77.949 -244.909 76.756 -245.438 75.562 C-245.62 75.15 -245.802 74.738 -245.99 74.312 C-246.167 73.913 -246.345 73.513 -246.527 73.102 C-246.69 72.735 -246.852 72.368 -247.019 71.991 C-247.5 70.938 -247.5 70.938 -248.02 70.021 C-248.569 68.782 -248.639 67.894 -248.661 66.542 C-248.671 66.068 -248.68 65.593 -248.69 65.104 C-248.695 64.588 -248.699 64.071 -248.703 63.555 C-248.705 63.423 -248.705 63.423 -248.712 62.755 C-248.727 61.351 -248.736 59.948 -248.74 58.545 C-248.745 57.4 -248.758 56.257 -248.781 55.112 C-248.996 44.175 -248.996 44.175 -247.043 39.383 C-246.655 38.518 -246.255 37.66 -245.853 36.802 C-245.213 35.234 -244.906 33.59 -244.562 31.938 C-243.513 27.437 -241.793 22.883 -238.927 19.201 C-237.856 17.983 -236.745 17.004 -235.5 15.938 C-233.19 15.938 -230.88 15.938 -228.5 15.938 C-227.18 17.257 -225.86 18.577 -224.5 19.938 C-224.5 23.238 -224.5 26.538 -224.5 29.938 C-225.49 31.257 -226.48 32.577 -227.5 33.938 C-229.484 37.063 -230.852 40.288 -231.5 43.938 C-232.39 50.799 -233.132 59.162 -231.229 65.897 C-230.267 68.484 -228.766 70.573 -226.91 72.609 C-226.446 73.058 -225.977 73.502 -225.5 73.938 C-225.335 74.102 -225.335 74.102 -224.5 74.938 C-218.059 75.902 -211.767 76.037 -205.269 75.75 C-204.249 75.706 -203.23 75.672 -202.209 75.646 C-193.214 75.418 -193.214 75.418 -190.828 74.238 C-189.992 73.742 -189.253 73.198 -188.472 72.61 C-187.5 71.938 -187.5 71.938 -186.446 71.647 C-185.44 71.535 -184.449 71.472 -183.438 71.438 C-179.897 71.161 -179.897 71.161 -178.344 70.285 C-177.742 69.764 -177.148 69.234 -176.562 68.695 C-174.895 67.506 -173.027 67.124 -171.049 66.672 C-169.543 66.311 -168.406 65.937 -167.16 65.004 C-165.767 63.998 -164.314 63.5 -162.688 63 C-159.432 61.987 -156.509 60.524 -153.5 58.938 C-152.503 58.412 -151.503 57.89 -150.5 57.375 C-150.255 57.249 -150.011 57.124 -149.759 56.995 C-147.742 55.991 -145.677 55.264 -143.504 54.672 C-142.797 54.465 -142.797 54.465 -141.5 53.938 C-140.819 53.285 -140.151 52.62 -139.5 51.938 C-138.662 51.559 -138.662 51.559 -137.844 51.375 C-137.543 51.3 -137.243 51.225 -136.934 51.148 C-136.311 51.008 -135.689 50.867 -135.066 50.727 C-134.766 50.652 -134.466 50.577 -134.156 50.5 C-133.886 50.439 -133.616 50.379 -133.338 50.316 C-132.5 49.938 -132.5 49.938 -130.5 47.938 C-129.345 47.772 -129.345 47.772 -123.5 46.938 C-123.5 46.278 -123.5 45.618 -123.5 44.938 C-123.372 44.897 -123.372 44.897 -122.721 44.694 C-121.542 44.322 -120.365 43.942 -119.188 43.562 C-118.985 43.499 -118.985 43.499 -117.963 43.18 C-116.13 42.584 -114.519 42.037 -112.969 40.875 C-112.132 40.269 -111.528 39.945 -110.521 39.685 C-109.452 39.523 -108.39 39.406 -107.312 39.312 C-106.944 39.274 -106.576 39.235 -106.197 39.195 C-105.299 39.102 -104.4 39.016 -103.5 38.938 C-103.5 38.278 -103.5 37.618 -103.5 36.938 C-103.359 36.915 -103.359 36.915 -102.646 36.802 C-101.345 36.588 -100.048 36.356 -98.75 36.125 C-98.307 36.055 -97.863 35.984 -97.406 35.912 C-95.576 35.576 -94.014 35.286 -92.457 34.231 C-91.812 33.698 -91.168 33.164 -90.523 32.631 C-89.01 31.606 -87.521 31.361 -85.74 31.061 C-85.31 30.999 -84.88 30.938 -84.438 30.875 C-79.956 30.202 -79.956 30.202 -78.671 29.456 C-78.199 29.102 -77.728 28.747 -77.258 28.39 C-76.037 27.661 -74.788 27.56 -73.393 27.406 C-73.036 27.375 -72.68 27.344 -72.312 27.312 C-72.128 27.293 -72.128 27.293 -71.197 27.195 C-70.299 27.102 -69.4 27.016 -68.5 26.938 C-67.366 26.029 -66.387 25.091 -65.5 23.938 C-64.955 22.467 -64.725 20.986 -64.5 19.438 C-64.386 18.655 -64.261 17.873 -64.125 17.094 C-64.101 16.923 -64.101 16.923 -63.977 16.057 C-63.5 14.938 -63.5 14.938 -60.5 11.938 C-57.53 11.938 -54.56 11.938 -51.5 11.938 C-50.51 12.928 -49.52 13.918 -48.5 14.938 C-48.277 21.242 -48.212 26.953 -50.5 32.938 C-46.394 30.551 -42.881 27.614 -39.375 24.438 C-39.164 24.246 -38.952 24.055 -38.734 23.858 C-36.215 21.576 -33.775 19.245 -31.423 16.789 C-30.086 15.556 -28.582 14.749 -27.004 13.863 C-23.639 11.881 -20.593 9.313 -17.5 6.938 C-16.84 6.938 -16.18 6.938 -15.5 6.938 C-15.5 6.277 -15.5 5.618 -15.5 4.938 C-15.392 4.897 -15.392 4.897 -14.845 4.694 C-14.2 4.454 -13.554 4.213 -12.909 3.972 C-12.174 3.697 -11.438 3.425 -10.702 3.153 C-7.545 1.982 -7.545 1.982 -6.031 1.258 C-3.951 0.284 -2.311 -0.25 0 0 Z M319.5 25.938 C318.18 27.587 316.86 29.238 315.5 30.938 C315.5 33.248 315.5 35.558 315.5 37.938 C316.82 37.938 318.14 37.938 319.5 37.938 C320.006 36.502 320.505 35.064 321 33.625 C321.143 33.221 321.286 32.817 321.434 32.4 C322.201 30.152 322.685 28.315 322.5 25.938 C321.51 25.938 320.52 25.938 319.5 25.938 Z M171.5 33.938 C170.54 34.56 169.582 35.185 168.625 35.812 C168.49 35.9 168.49 35.9 167.809 36.34 C167.544 36.514 167.28 36.688 167.008 36.867 C166.887 36.946 166.887 36.946 166.278 37.343 C165.271 38.112 164.396 39.042 163.5 39.938 C163.5 42.248 163.5 44.558 163.5 46.938 C164.82 48.587 166.14 50.238 167.5 51.938 C168.82 51.608 170.14 51.278 171.5 50.938 C172.105 49.469 172.692 47.994 173.264 46.512 C173.46 46.011 173.661 45.512 173.866 45.014 C174.557 43.338 175.139 41.718 175.5 39.938 C175.379 38.19 175.037 36.602 174.5 34.938 C173.51 34.608 172.52 34.278 171.5 33.938 Z M151.5 59.938 C149.914 62.139 148.407 64.364 147.5 66.938 C147.035 69.917 147.234 72.945 147.5 75.938 C148.49 76.267 149.48 76.597 150.5 76.938 C154.951 74.692 158.107 71.541 161.5 67.938 C161.17 66.618 160.84 65.298 160.5 63.938 C159.18 63.278 157.86 62.618 156.5 61.938 C156.17 61.278 155.84 60.618 155.5 59.938 C154.18 59.938 152.86 59.938 151.5 59.938 Z M314.211 102.594 C313.763 102.871 313.318 103.152 312.875 103.438 C312.646 103.581 312.416 103.724 312.18 103.871 C311.617 104.223 311.058 104.58 310.5 104.938 C310.5 105.597 310.5 106.257 310.5 106.938 C310.258 107.043 310.017 107.148 309.768 107.256 C306.943 108.566 304.75 110.245 302.438 112.312 C302.268 112.458 302.268 112.458 301.412 113.195 C299.104 115.231 297.251 117.409 295.5 119.938 C295.5 120.928 295.5 121.918 295.5 122.938 C297.207 122.363 298.855 121.668 300.5 120.938 C300.832 120.792 301.165 120.647 301.507 120.497 C305.287 118.789 308.813 116.918 311.602 113.785 C312.255 113.016 312.877 112.233 313.5 111.438 C313.791 111.07 314.081 110.703 314.38 110.324 C315.845 108.318 316.691 106.602 317.188 104.156 C317.302 103.418 317.41 102.679 317.5 101.938 C316.086 101.874 315.516 101.929 314.211 102.594 Z " fill="#8b0000" transform="translate(608.5,276.0625)"/>
</svg>
